# xmcd
#
# Track frame offsets:
#	150
#	17262
#	28850
#	45837
#	63775
#	80675
#	97450
#	110350
#	126500
#	142150
#	162200
#	180612
#	196225
#	208450
#	224075
#	235775
#
# Disc length: 3317 seconds
#
# Revision: 0
# Processed by: cddbd v1.5.2PL0 Copyright (c) Steve Scherf et al.
# Submitted via: EZCDAudioConverter 1.6.1.1
#
DISCID=ec0cf310
DTITLE=piano - 鋼琴之愛03
DYEAR=1900
DGENRE=
TTITLE0=Summer of 42往日如煙
TTITLE1=Moulin Rouge
TTITLE2=Melody Fair兩小無猜主題曲
TTITLE3=In the morning兩小無猜插曲
TTITLE4=Bilitis少女情懷總是詩
TTITLE5=Blue balloon初戀的故事
TTITLE6=Tonight西城故事
TTITLE7=Theme from "Mahoghany"
TTITLE8=Theme from "Gone with the wind"亂世佳人
TTITLE9=Take me breath away悍衛戰士
TTITLE10=Endless love
TTITLE11=Out of Africa
TTITLE12=The rose歌聲淚痕
TTITLE13=Groovy kind of love火車大盜
TTITLE14=Lara's Theme from "Dr. Zhivago"
TTITLE15=Auld lang syne魂斷藍橋
EXTD=
EXTT0=
EXTT1=
EXTT2=
EXTT3=
EXTT4=
EXTT5=
EXTT6=
EXTT7=
EXTT8=
EXTT9=
EXTT10=
EXTT11=
EXTT12=
EXTT13=
EXTT14=
EXTT15=
PLAYORDER=
